<?xml version="1.0" encoding="utf-8"?>
<!-- Generator: Adobe Illustrator 22.0.0, SVG Export Plug-In . SVG Version: 6.00 Build 0)  -->
<svg version="1.1" id="Layer_1" xmlns="http://www.w3.org/2000/svg" xmlns:xlink="http://www.w3.org/1999/xlink" x="0px" y="0px"
	 viewBox="0 0 5500 3700" style="enable-background:new 0 0 5500 3700;" xml:space="preserve">
<style type="text/css">
	.st0{fill:url(#SVGID_1_);}
	.st1{fill:url(#SVGID_2_);}
	.st2{fill:url(#SVGID_3_);}
	.st3{fill:url(#SVGID_4_);}
	.st4{fill:url(#SVGID_5_);}
	.st5{fill:url(#SVGID_6_);}
</style>
<g>
	<linearGradient id="SVGID_1_" gradientUnits="userSpaceOnUse" x1="1288.4572" y1="2483.2036" x2="1308.8353" y2="961.6296">
		<stop  offset="0" style="stop-color:#8CC63F"/>
		<stop  offset="1" style="stop-color:#D9E021"/>
	</linearGradient>
	<path class="st0" d="M1708.1,1558.9c-51.6,0-85.5,25.5-100.8,75.9l-0.1,0.2l-99.1,437.9l-100.8-514h-216l-106.6,514.8L967,1558.9
		H757l214.1,781.2l1.2,4.4h212.6l117.9-532.1l112.3,532.1h211.2l218.3-785.6H1708.1z"/>
	<linearGradient id="SVGID_2_" gradientUnits="userSpaceOnUse" x1="2772.0635" y1="2503.0735" x2="2792.4419" y2="981.4993">
		<stop  offset="0" style="stop-color:#8CC63F"/>
		<stop  offset="1" style="stop-color:#D9E021"/>
	</linearGradient>
	<path class="st1" d="M2784.6,1338h-106.9v1006.4h206.4V1439C2884.1,1384.3,2838.5,1338,2784.6,1338z"/>
	<linearGradient id="SVGID_3_" gradientUnits="userSpaceOnUse" x1="3105.4419" y1="2507.5383" x2="3125.8201" y2="985.9642">
		<stop  offset="0" style="stop-color:#8CC63F"/>
		<stop  offset="1" style="stop-color:#D9E021"/>
	</linearGradient>
	<path class="st2" d="M3118,1338h-106.9v1006.4h206.4V1439C3217.6,1384.3,3172,1338,3118,1338z"/>
	<linearGradient id="SVGID_4_" gradientUnits="userSpaceOnUse" x1="3645.7217" y1="2514.7742" x2="3666.0999" y2="993.2001">
		<stop  offset="0" style="stop-color:#8CC63F"/>
		<stop  offset="1" style="stop-color:#D9E021"/>
	</linearGradient>
	<path class="st3" d="M3653.3,1547.2c-111.7,0-196.8,28.3-253,84.2c-56.4,56-84.9,140.9-84.9,252.3v460.8h209.3l0-500.2
		c1.4-76.8,42.5-114.1,125.7-114.1c83.4,0,124.3,36.3,128.6,114.1V2242c0,32,8.7,56.9,25.9,73.9c17.1,16.9,42,26.2,76.2,28.6
		l105.8,0v-460.8c0.7-111.8-27-196.8-82.4-252.6C3849.1,1575.4,3764.6,1547.2,3653.3,1547.2z"/>
	<linearGradient id="SVGID_5_" gradientUnits="userSpaceOnUse" x1="4399.3599" y1="2524.8674" x2="4419.7378" y2="1003.2935">
		<stop  offset="0" style="stop-color:#8CC63F"/>
		<stop  offset="1" style="stop-color:#D9E021"/>
	</linearGradient>
	<path class="st4" d="M4328.1,2164.4l401.6-430.2l1.6-1.7v-173.6h-645.2v68.8c0,60.1,45.3,105.4,105.4,105.4h277.7l-406.5,449.5
		v161.8H4743v-180.1H4328.1z"/>
	<linearGradient id="SVGID_6_" gradientUnits="userSpaceOnUse" x1="2233.3667" y1="2495.8586" x2="2253.7449" y2="974.2847">
		<stop  offset="0" style="stop-color:#8CC63F"/>
		<stop  offset="1" style="stop-color:#D9E021"/>
	</linearGradient>
	<path class="st5" d="M2659.6,1735.6c-25.6-9.7-51.3-19.1-77.3-27.6c-12.1-4-24.6-6.9-37-9.8c-2.5-4.5-5.2-8.9-7.9-13.2
		c6.6-17.8,13.4-35.2,18.7-53.1c9-30.3,16.8-61,24.4-91.7c4.1-16.6-5.9-27.7-21.6-25.3c-51.8,8-102.4,21-151.3,39.8
		c-9.2,3.5-18.3,7.3-27.4,11.1c-10.1-3.1-20.5-5.9-31.2-8.2c-22.6-55.2-51.9-106.7-86.7-155.1c-12.9-18-24.7-17.9-37.8,0.2
		c-28.1,38.8-52.4,79.9-72.7,123.3c-5.1,10.9-9.8,22-14.5,33.1c-9.7,2.2-19.1,4.8-28.2,7.6c-57.6-24.7-117.5-41.9-179.7-51.5
		c-16.4-2.5-26.9,7.6-23.3,23.6c4.9,21.5,9.4,43.1,15.8,64.2c8.4,27.7,18,55.1,27.3,82.8c-2.7,4.2-5.3,8.5-7.8,12.9
		c-38.5,8.5-75.8,20.5-112,36.1c-16.7,7.2-20.4,18.1-9.3,32.6c16.7,21.8,33.3,43.7,51.6,64.1c6.8,7.6,13.8,15.1,20.9,22.3
		c-4,29.8-6,61.7-6,95.8c0,132.5,30,234.5,89.2,303.2c59.4,68.9,149.4,105.7,267.6,109.4l0.2,0c94.1,0,170.8-22.6,228-67.1
		c54.8-42.7,93.7-107.3,115.6-191.9l1.9-7.4h-151c-28.3,0-51.9,9.9-70.1,29.6c-37.2,35.7-78.1,53.8-121.5,53.8
		c-45.4,0-80.8-14.4-105.2-42.7c-23.7-27.6-37.8-69.2-42-123.8h499.5l0.3-5.7c2.7-55.6,0.9-106.5-5.2-152.3
		c27.2-27.3,51.8-57.4,74.5-89.4C2676.9,1753.1,2673.4,1740.9,2659.6,1735.6z M2366.6,1805c12.6-31.1,17.8-64.9,16.7-101
		c-0.9-29-5.7-57.4-13.6-85.2c-1.8-6.2-0.4-8.8,5.4-11.5c17.6-8.1,35.5-15.4,53.6-22c34.9-12.7,70.7-22.6,107.3-29.9
		c1-0.2,2.1,0,5.2,0c-8.4,27.5-15.7,54.3-24.7,80.6c-1.6,4.6-3.2,9.2-4.9,13.8c-19.8,54.6-45.3,106.3-82.2,151.9
		c-15.2,18.7-31.9,35.5-50.9,49.2c-5.2,3.8-10.5,7.3-16.1,10.6c-11.1,6.6-23,12.3-35.6,16.9c-2.4,0.9-4.8,1.7-7.2,2.4
		c-0.8,0.2-1.6,0-3.6,0c1.7-2.1,2.9-3.8,4.2-5.2c4.4-4.6,8.6-9.3,12.6-14.1C2347.3,1843.9,2358.5,1825,2366.6,1805z M1947.9,1561.1
		c-0.4-1.6-0.4-3.3-0.8-6.1c39,7.2,76.5,17.6,113,31.1c19.7,7.3,39,15.4,58,24.5c-4,20.1-8.8,39.6-11.5,59.4
		c-6.4,46.7-3.7,91.2,12.4,132.2c8.1,20.8,19.7,40.6,35.2,59.5c0.9,1.1,1.7,2.1,2.6,3.2c4.7,5.5,9.8,10.7,16,17.5
		c-18-4.8-33.7-11.8-48.3-20.6c-4.3-2.6-8.5-5.3-12.6-8.3c-2.3-1.6-4.5-3.3-6.8-5c-33.8-25.6-59.6-58.5-81.3-94.9
		c-19.6-32.9-35.4-67.3-48.5-102.8C1964.5,1621.5,1955.5,1591.5,1947.9,1561.1z M2142.2,1931.8c-46.3,6.6-88.4-6.7-128.2-29
		c-43.6-24.5-80.5-57-113.7-93.5c-7-7.7-13.8-15.5-20.5-23.4c-6.5-7.8-12.7-15.8-19.7-24.6c20.3-8.2,40.5-14.9,60.9-20.4
		c14.7-4,29.5-7.4,44.3-10.3c2-0.4,5.8,2.6,7,5c16.7,32.2,35.3,63.1,58.6,91.1c35.3,42.4,77.2,75.3,131.2,90.5
		c5.1,1.4,10.3,2.7,15.4,4.1c0.2,0.8,0.3,1.7,0.5,2.5C2166.1,1926.5,2154.3,1930.1,2142.2,1931.8z M2282.4,1861.6
		c-10,8.7-20.9,16.5-32.5,23.5c-3.3,2-9.8,2.1-13,0.1c-11.9-7.3-22.6-15.2-32.3-23.6c-32-27.9-52.1-61.7-60.6-101.3
		c-4.6-21.4-5.8-44.5-3.6-69.2c4.4-49.5,19-95.5,39.1-139.7c8.7-19.2,18.4-38,28.8-56.6c10.6-18.9,22.4-37.1,34.6-57.3
		c24.2,37,46.1,74.2,63.7,112.9c17.6,39,30.8,79.5,37.3,122.8c4.6,30.2,4.7,59.8-1.6,88.2c-4.8,21.5-13.4,42.4-26.7,62.3
		C2306.3,1838.1,2295.1,1850.6,2282.4,1861.6z M2586,1809.7c-2.1,2.4-4.3,4.7-6.5,7c-38.4,40.9-81,76.5-133,99.2
		c-40.9,17.8-82.9,23.7-126.5,10.8c-3.8-1.1-7.4-2.5-13.6-4.6c107.2-25.3,164.3-102.6,212-194.1c15.8,4.5,31.5,9.1,47.3,13.6
		c20.1,5.8,40.3,11.6,60.4,17.4c0.2,1.1,0.4,2.3,0.6,3.4C2613.1,1778.1,2600,1794.3,2586,1809.7z"/>
</g>
</svg>
