<svg width="25" height="24" viewBox="0 0 25 24" fill="none" xmlns="http://www.w3.org/2000/svg">
<g clip-path="url(#clip0_246_41)">
<path d="M22.675 5.65605C21.9116 5.99375 21.102 6.21555 20.2731 6.31411C21.1464 5.79132 21.7999 4.9689 22.1118 4.00005C21.2912 4.48761 20.393 4.83077 19.4563 5.01461C18.6656 4.17106 17.5605 3.69303 16.4043 3.69434C14.0951 3.69434 12.2222 5.56661 12.2222 7.87683C12.2222 8.20458 12.2598 8.52242 12.3301 8.82909C8.85299 8.65404 5.77259 6.99005 3.7093 4.45941C3.33781 5.09767 3.14257 5.82318 3.14356 6.56167C3.14356 8.01259 3.88212 9.29324 5.00401 10.043C4.33989 10.022 3.6904 9.84264 3.1097 9.51973C3.10906 9.5373 3.10906 9.55487 3.10906 9.57148C3.10906 11.5984 4.55071 13.2892 6.46451 13.6731C6.10532 13.7703 5.73484 13.8194 5.36274 13.8191C5.09249 13.8191 4.83023 13.7942 4.57531 13.7453C5.10783 15.4065 6.65138 16.6159 8.48212 16.6491C7.00065 17.8118 5.17121 18.4426 3.28795 18.4399C2.95464 18.4402 2.62161 18.4205 2.29064 18.3811C4.20256 19.6102 6.42804 20.2625 8.70094 20.2601C16.3941 20.2601 20.6005 13.8875 20.6005 8.36111C20.6005 8.1803 20.5961 7.99886 20.5881 7.81997C21.4068 7.22845 22.1135 6.49567 22.675 5.65605Z" fill="#212121"/>
</g>
<defs>
<clipPath id="clip0_246_41">
<rect width="24" height="24" fill="white" transform="translate(0.462524)"/>
</clipPath>
</defs>
</svg>
