<svg width="25" height="24" viewBox="0 0 25 24" fill="none" xmlns="http://www.w3.org/2000/svg">
<g clip-path="url(#clip0_246_42)">
<path d="M7.403 4.99993C7.40263 5.81424 6.9086 6.54702 6.15386 6.85273C5.39912 7.15845 4.53439 6.97605 3.96742 6.39155C3.40045 5.80704 3.24447 4.93715 3.57302 4.19207C3.90158 3.44699 4.64906 2.9755 5.463 2.99993C6.54407 3.03238 7.40349 3.91837 7.403 4.99993ZM7.463 8.47993H3.463V20.9999H7.463V8.47993ZM13.783 8.47993H9.803V20.9999H13.743V14.4299C13.743 10.7699 18.513 10.4299 18.513 14.4299V20.9999H22.463V13.0699C22.463 6.89993 15.403 7.12993 13.743 10.1599L13.783 8.47993Z" fill="#212121"/>
</g>
<defs>
<clipPath id="clip0_246_42">
<rect width="24" height="24" fill="white" transform="translate(0.462524)"/>
</clipPath>
</defs>
</svg>
