<svg width="25" height="24" viewBox="0 0 25 24" fill="none" xmlns="http://www.w3.org/2000/svg">
<g clip-path="url(#clip0_246_43)">
<path d="M12.7064 4C13.2405 4.00294 14.5768 4.01586 15.9966 4.07273L16.5 4.09468C17.9295 4.16236 19.3578 4.27798 20.0662 4.4755C21.0111 4.74095 21.7538 5.5155 22.0048 6.49732C22.4045 8.05641 22.4545 11.0994 22.4607 11.8358L22.4616 11.9884V11.9991C22.4616 11.9991 22.4616 12.0028 22.4616 12.0099L22.4607 12.1625C22.4545 12.8989 22.4045 15.9419 22.0048 17.501C21.7503 18.4864 21.0076 19.261 20.0662 19.5228C19.3578 19.7203 17.9295 19.8359 16.5 19.9036L15.9966 19.9255C14.5768 19.9824 13.2405 19.9953 12.7064 19.9983L12.472 19.9991H12.4616C12.4616 19.9991 12.4581 19.9991 12.4512 19.9991L12.217 19.9983C11.0866 19.9921 6.36024 19.941 4.85703 19.5228C3.91212 19.2573 3.16944 18.4828 2.91839 17.501C2.51872 15.9419 2.46876 12.8989 2.46252 12.1625V11.8358C2.46876 11.0994 2.51872 8.05641 2.91839 6.49732C3.17292 5.51186 3.9156 4.73732 4.85703 4.4755C6.36024 4.05723 11.0866 4.00622 12.217 4H12.7064ZM10.4616 8.49914V15.4991L16.4616 11.9991L10.4616 8.49914Z" fill="black"/>
</g>
<defs>
<clipPath id="clip0_246_43">
<rect width="24" height="24" fill="white" transform="translate(0.462524)"/>
</clipPath>
</defs>
</svg>
