<svg width="94" height="18" viewBox="0 0 94 18" fill="none" xmlns="http://www.w3.org/2000/svg">
<path d="M9.38402 2.01221L11.5728 6.44637L16.4674 7.16179L12.9257 10.6114L13.7615 15.4847L9.38402 13.1826L5.00652 15.4847L5.84236 10.6114L2.30069 7.16179L7.19527 6.44637L9.38402 2.01221Z" fill="#F2AA3E"/>
<path d="M28.384 2.01221L30.5728 6.44637L35.4674 7.16179L31.9257 10.6114L32.7615 15.4847L28.384 13.1826L24.0065 15.4847L24.8424 10.6114L21.3007 7.16179L26.1953 6.44637L28.384 2.01221Z" fill="#F2AA3E"/>
<path d="M47.384 2.01221L49.5728 6.44637L54.4674 7.16179L50.9257 10.6114L51.7615 15.4847L47.384 13.1826L43.0065 15.4847L43.8424 10.6114L40.3007 7.16179L45.1953 6.44637L47.384 2.01221Z" fill="#F2AA3E"/>
<path d="M66.384 2.01221L68.5728 6.44637L73.4674 7.16179L69.9257 10.6114L70.7615 15.4847L66.384 13.1826L62.0065 15.4847L62.8424 10.6114L59.3007 7.16179L64.1953 6.44637L66.384 2.01221Z" fill="#F2AA3E"/>
<path d="M85.384 2.01221L87.5728 6.44637L92.4674 7.16179L88.9257 10.6114L89.7615 15.4847L85.384 13.1826L81.0065 15.4847L81.8424 10.6114L78.3007 7.16179L83.1953 6.44637L85.384 2.01221Z" fill="#F2AA3E"/>
</svg>
