<svg width="172" height="31" viewBox="0 0 172 31" fill="none" xmlns="http://www.w3.org/2000/svg">
<path d="M95.2375 12.0801H88.0919V12.8225C90.3253 12.8225 90.6965 13.2865 90.6965 16.0983V21.1605C90.6965 23.9909 90.3253 24.5106 88.0919 24.5106C86.3798 24.2878 85.1889 23.3196 83.6252 21.6075L81.7646 19.5968C84.2207 19.1328 85.5616 17.5862 85.5616 15.8756C85.5616 13.7164 83.701 12.0043 80.2024 12.0043H73.2054V12.7467C75.4387 12.7467 75.8099 13.2107 75.8099 16.0225V21.0847C75.8099 23.9151 75.4387 24.4348 73.2054 24.4348V25.1772H81.0964V24.4348C78.863 24.4348 78.4918 23.9136 78.4918 21.0847V19.6711H79.1615L83.554 25.1772H95.1663C100.898 25.1772 103.354 22.1256 103.354 18.5528C103.429 15.0543 100.972 12.077 95.2406 12.077L95.2375 12.0801ZM78.5645 18.5559V13.2865H80.204C81.9904 13.2865 82.8086 14.5516 82.8086 15.9668C82.8086 17.382 81.9888 18.5714 80.204 18.5714L78.5645 18.5559ZM95.3875 24.062H95.089C93.6754 24.062 93.4496 23.6908 93.4496 21.9029V13.2726H95.3829C99.5511 13.2726 100.295 16.3241 100.295 18.6317C100.295 21.0878 99.4753 24.0651 95.3829 24.0651L95.3875 24.062ZM51.0217 20.0608L53.7747 11.9471C54.5944 9.56521 54.2387 8.89551 51.6898 8.89551V8.07579H59.2066V8.89551C56.6762 8.89551 56.0823 9.49098 55.1126 12.3941L50.57 26H49.9746L45.8806 13.5695L41.785 26H41.2638L36.8713 12.3786C35.9031 9.47551 35.3246 8.88005 33 8.88005V8.06032H41.785V8.88005C39.4032 8.88005 38.8077 9.40127 39.6259 11.9316L42.3062 20.0454L46.3275 8.05877H47.0699L51.0217 20.0608ZM64.5673 25.8685C60.1748 25.8685 56.602 22.667 56.602 18.723C56.602 14.8517 60.1593 11.5774 64.5673 11.5774C68.9752 11.5774 72.5326 14.779 72.5326 18.723C72.5326 22.667 68.9752 25.8685 64.5673 25.8685ZM64.5673 12.7683C60.9203 12.7683 59.6551 16.0442 59.6551 18.6487C59.6551 21.2533 60.9203 24.5291 64.5673 24.5291C68.2885 24.5291 69.5552 21.2533 69.5552 18.6487C69.5552 16.1184 68.2901 12.7683 64.5673 12.7683ZM113.251 24.5276V25.3473H104.095V24.5276C106.776 24.5276 107.219 23.8579 107.219 19.8381V13.435C107.219 9.41364 106.755 8.81973 104.095 8.81973V8H112.357C116.451 8 118.761 10.0849 118.761 12.9122C118.761 15.6652 116.453 17.8244 112.357 17.8244H110.124V19.9093C110.124 23.8532 110.588 24.5245 113.248 24.5245L113.251 24.5276ZM112.357 9.49098H110.124V16.4138H112.357C114.591 16.4138 115.633 14.8672 115.633 12.9895C115.633 11.1119 114.591 9.49098 112.357 9.49098ZM146.079 21.623L145.856 22.3654C145.485 23.7048 145.037 24.1517 142.209 24.1517H141.688C139.603 24.1517 139.232 23.6877 139.232 20.8759V19.0153C142.356 19.0153 142.582 19.3138 142.582 21.3971H143.325V15.4425H142.582C142.582 17.5274 142.36 17.8244 139.232 17.8244V13.3638H141.391C144.222 13.3638 144.667 13.8278 145.038 15.1502L145.261 15.8926H145.931L145.632 12.1713H133.946V12.9137C136.179 12.9137 136.55 13.3777 136.55 16.1895V21.2518C136.55 23.8563 136.252 24.5276 134.465 24.6018C132.826 24.3791 131.635 23.4109 130.073 21.6987L128.212 19.6881C130.668 19.2241 132.009 17.6774 132.009 15.9668C132.009 13.8077 130.149 12.0955 126.65 12.0955H119.653V12.8379C121.886 12.8379 122.258 13.3019 122.258 16.1138V21.176C122.258 24.0064 121.886 24.526 119.653 24.526V25.2684H127.544V24.526C125.311 24.526 124.94 24.0048 124.94 21.176V19.7623H125.609L130.002 25.2684H146.378L146.6 21.5472H146.079V21.623ZM125.014 18.5714V13.2865H126.653C128.44 13.2865 129.258 14.5516 129.258 15.9668C129.258 17.382 128.438 18.5714 126.653 18.5714H125.014Z" fill="#00749A"/>
<path d="M154.193 25.8685C152.631 25.8685 151.216 25.0488 150.636 24.5291C150.413 24.7518 150.115 25.3488 149.966 25.8685H149.224V20.3624H150.043C150.342 22.967 152.202 24.5306 154.51 24.5306C155.775 24.5306 156.818 23.7882 156.818 22.5973C156.818 21.5549 155.924 20.7367 154.287 19.9927L152.054 18.9503C150.492 18.2079 149.301 16.8654 149.301 15.1533C149.301 13.2199 151.087 11.5959 153.543 11.5959C154.883 11.5959 156 12.0445 156.668 12.6384C156.89 12.4899 157.039 12.0429 157.189 11.5959H157.931V16.2854H157.112C156.813 14.4248 155.772 12.8611 153.687 12.8611C152.571 12.8611 151.528 13.5308 151.528 14.5006C151.528 15.543 152.348 16.0627 154.281 16.9567L156.44 17.9991C158.374 18.8931 159.121 20.381 159.121 21.5564C159.046 24.0868 156.887 25.8716 154.209 25.8716L154.193 25.8685Z" fill="#00749A"/>
<path d="M166.476 25.8685C164.914 25.8685 163.499 25.0488 162.919 24.5291C162.696 24.7518 162.398 25.3488 162.249 25.8685H161.507V20.3624H162.327C162.625 22.967 164.486 24.5306 166.794 24.5306C168.059 24.5306 169.101 23.7882 169.101 22.5973C169.101 21.5549 168.207 20.7367 166.571 19.9927L164.337 18.9503C162.775 18.2079 161.584 16.8654 161.584 15.1533C161.584 13.2199 163.371 11.5959 165.827 11.5959C167.166 11.5959 168.283 12.0445 168.951 12.6384C169.174 12.4899 169.322 12.0429 169.472 11.5959H170.215V16.2854H169.395C169.097 14.4248 168.056 12.8611 165.971 12.8611C164.854 12.8611 163.812 13.5308 163.812 14.5006C163.812 15.543 164.631 16.0627 166.565 16.9567L168.724 17.9991C170.657 18.8931 171.404 20.381 171.404 21.5564C171.33 24.0868 169.171 25.8716 166.492 25.8716L166.476 25.8685Z" fill="#00749A"/>
<path d="M2.171 15.369C2.171 20.603 5.178 25.113 9.577 27.229L3.341 10.024C2.617 11.694 2.171 13.475 2.171 15.369ZM24.278 14.699C24.278 13.084 23.665 11.915 23.164 11.079C22.496 9.965 21.884 9.074 21.884 7.961C21.884 6.736 22.831 5.621 24.111 5.621H24.278C21.938 3.453 18.82 2.171 15.378 2.171C10.756 2.227 6.748 4.565 4.353 8.129H5.188C6.58 8.129 8.696 7.962 8.696 7.962C9.42 7.906 9.476 8.964 8.796 9.076C8.796 9.076 8.072 9.176 7.293 9.176L12.093 23.431L14.988 14.801L12.928 9.177L11.536 9.077C10.812 9.021 10.923 7.963 11.592 7.963C11.592 7.963 13.764 8.13 15.044 8.13C16.436 8.13 18.552 7.963 18.552 7.963C19.276 7.907 19.332 8.965 18.652 9.077C18.652 9.077 17.928 9.177 17.149 9.177L21.949 23.377L23.285 18.977C23.842 17.139 24.287 15.859 24.287 14.689L24.278 14.699ZM15.591 16.539L11.638 28.009C12.808 28.343 14.088 28.566 15.368 28.566C16.928 28.566 18.375 28.288 19.768 27.842C19.712 27.786 19.712 27.742 19.668 27.675L15.591 16.539ZM26.951 9.079L27.051 10.415C27.051 11.751 26.828 13.255 26.049 15.148L22.049 26.785C25.947 24.502 28.619 20.27 28.619 15.37C28.563 13.087 27.951 10.97 26.949 9.078L26.951 9.079ZM15.368 0C6.904 0 0 6.905 0 15.368C0 23.831 6.904 30.737 15.368 30.737C23.832 30.737 30.736 23.832 30.736 15.369C30.736 6.906 23.832 0 15.368 0ZM15.368 30.068C7.294 30.068 0.723999 23.498 0.723999 15.368C0.723999 7.284 7.294 0.724 15.368 0.724C23.442 0.724 30.012 7.294 30.012 15.368C30.012 23.498 23.442 30.068 15.368 30.068Z" fill="#00749A"/>
</svg>
