<svg width="34" height="34" viewBox="0 0 34 34" fill="none" xmlns="http://www.w3.org/2000/svg">
<g clip-path="url(#clip0_172_41)">
<mask id="mask0_172_41" style="mask-type:luminance" maskUnits="userSpaceOnUse" x="0" y="0" width="34" height="35">
<path d="M0 17.0002C0 26.3891 7.61112 34.0002 17 34.0002C26.389 34.0002 34.0001 26.3891 34.0001 17.0002C34.0001 7.61129 26.389 0.000174403 17 0.000174403C7.61112 0.000174403 0 7.61129 0 17.0002Z" fill="white"/>
</mask>
<g mask="url(#mask0_172_41)">
<path d="M0 17.0002C0 26.3891 7.61112 34.0002 17 34.0002C26.389 34.0002 34.0001 26.3891 34.0001 17.0002C34.0001 7.61129 26.389 0.000174403 17 0.000174403C7.61112 0.000174403 0 7.61129 0 17.0002Z" fill="url(#paint0_linear_172_41)"/>
</g>
<mask id="mask1_172_41" style="mask-type:luminance" maskUnits="userSpaceOnUse" x="-3" y="-3" width="40" height="40">
<path d="M-2.29102 -2.29086H36.1733V36.0168H-2.29102V-2.29086Z" fill="white"/>
</mask>
<g mask="url(#mask1_172_41)">
<path d="M11.5076 18.2427L13.5245 23.8253C13.5245 23.8253 13.7766 24.3474 14.0468 24.3474C14.3169 24.3474 18.3328 20.1694 18.3328 20.1694L22.7989 11.5434L11.5796 16.8018L11.5076 18.2427Z" fill="#C8DAEA"/>
</g>
<mask id="mask2_172_41" style="mask-type:luminance" maskUnits="userSpaceOnUse" x="-3" y="-3" width="40" height="40">
<path d="M-2.29102 -2.29086H36.1733V36.0168H-2.29102V-2.29086Z" fill="white"/>
</mask>
<g mask="url(#mask2_172_41)">
<path d="M14.1816 19.6742L13.7944 23.7891C13.7944 23.7891 13.6323 25.0497 14.8929 23.7891C16.1535 22.5285 17.3601 21.556 17.3601 21.556" fill="#A9C6D8"/>
</g>
<mask id="mask3_172_41" style="mask-type:luminance" maskUnits="userSpaceOnUse" x="-3" y="-3" width="40" height="40">
<path d="M-2.29102 -2.29086H36.1733V36.0168H-2.29102V-2.29086Z" fill="white"/>
</mask>
<g mask="url(#mask3_172_41)">
<path d="M11.5439 18.4421L7.39543 17.0903C7.39543 17.0903 6.90027 16.8893 7.05932 16.433C7.09217 16.339 7.1583 16.259 7.35639 16.1208C8.27583 15.4802 24.3714 9.69483 24.3714 9.69483C24.3714 9.69483 24.8259 9.54183 25.0946 9.64354C25.2174 9.69007 25.2958 9.74265 25.3617 9.93455C25.3858 10.0044 25.3996 10.153 25.3978 10.3008C25.3963 10.4074 25.3833 10.5061 25.3738 10.6609C25.2759 12.2428 22.3426 24.0475 22.3426 24.0475C22.3426 24.0475 22.1672 24.7383 21.5383 24.7618C21.309 24.7704 21.0306 24.7239 20.6978 24.4376C19.4639 23.3761 15.1985 20.5096 14.2561 19.8793C14.2028 19.8438 14.1878 19.7976 14.1787 19.7525C14.1655 19.6862 14.2364 19.6035 14.2364 19.6035C14.2364 19.6035 21.6634 13.0016 21.861 12.3089C21.8763 12.2552 21.8188 12.2287 21.7409 12.2519C21.2476 12.4334 12.6963 17.8331 11.7526 18.4295C11.6975 18.4644 11.5427 18.4419 11.5427 18.4419" fill="white"/>
</g>
</g>
<defs>
<linearGradient id="paint0_linear_172_41" x1="17" y1="34.0001" x2="17" y2="3.1408e-05" gradientUnits="userSpaceOnUse">
<stop stop-color="#1D93D2"/>
<stop offset="1" stop-color="#38B0E3"/>
</linearGradient>
<clipPath id="clip0_172_41">
<rect width="34" height="34" fill="white"/>
</clipPath>
</defs>
</svg>
