<svg width="104" height="26" viewBox="0 0 104 26" fill="none" xmlns="http://www.w3.org/2000/svg">
<path d="M33.5851 10.1788C33.5851 8.31197 31.7759 6.35416 28.6313 6.35416C25.1048 6.35416 21.233 8.92452 20.6402 14.0547C20.0344 19.2351 23.2768 21.5372 26.5451 21.5372C29.8135 21.5372 31.5248 20.2712 33.2751 18.5829C31.77 16.7045 29.8264 17.5725 29.454 17.7639C28.8374 18.104 28.1393 18.2721 27.4338 18.2504C26.1727 18.2504 24.8856 17.688 24.8856 15.3475C32.9663 14.5541 33.5851 12.0339 33.5851 10.1788ZM29.5801 10.4856C29.5282 11.0609 29.2972 12.0456 25.205 12.5975C26.0654 9.55224 27.7155 9.32355 28.4734 9.32355C28.627 9.31661 28.7803 9.34248 28.9229 9.39939C29.0655 9.45631 29.194 9.54294 29.2998 9.6534C29.4056 9.76387 29.4861 9.89558 29.5359 10.0396C29.5857 10.1836 29.6036 10.3365 29.5883 10.488L29.5801 10.4856ZM15.8938 10.985L14.0151 16.8561L12.6891 6.66218C9.73078 6.66218 8.13962 8.76001 7.30987 10.9722L5.01861 16.869L4.69684 11.0352C4.52241 8.32364 2.02135 6.67385 0 6.67385L2.44448 21.4216C5.54428 21.41 7.21793 19.3238 8.09366 17.1116L10.0313 12.0981C10.049 12.3023 11.3702 21.4228 11.3702 21.4228C14.4842 21.4228 16.1578 19.4662 17.0548 17.3298L21.4157 6.67501C18.3454 6.67501 16.7271 8.76001 15.8915 10.985H15.8938ZM45.0131 6.31799C43.0955 6.31799 41.6304 7.35407 40.3928 8.87552V8.86385L41.4984 0C38.9502 0 36.8782 2.2005 36.4798 5.47442L34.5633 21.3073C36.0307 21.3073 37.5877 20.8849 38.4245 19.8104C39.1718 20.7694 40.2903 21.5372 41.951 21.5372C46.2483 21.5372 49.196 16.5749 49.196 11.9184C49.1701 7.67142 47.0981 6.32965 45.026 6.32965L45.0131 6.31799ZM44.6123 13.9287C44.1645 16.5248 42.7077 18.2901 41.3063 18.2901C39.9049 18.2901 39.2861 17.6635 39.2861 17.6635C39.5572 15.3883 39.7246 13.9929 40.2384 12.79C40.7523 11.5871 41.9757 9.66891 43.2498 9.66891C44.4992 9.66891 45.0649 11.3187 44.6135 13.9276L44.6123 13.9287ZM59.9133 6.66335H56.9149L56.9267 6.50933C57.1329 4.56552 57.5961 3.54227 59.1236 3.37543C60.1667 3.27275 60.6299 2.73604 60.7454 2.148L61.1191 0.0886737C55.1081 0.0501708 53.2057 2.6322 52.7213 6.57351L52.7095 6.66335H52.6447C51.6665 6.66335 50.5868 7.7636 50.4053 9.15787L50.3405 9.66891H52.3489L50.6634 23.5066L50.1472 25.9883C50.212 25.9883 50.2886 26 50.3523 26C53.1692 25.8973 54.9725 23.6852 55.3709 20.4742L56.6862 9.66658H57.6291C58.5555 9.66658 59.6375 8.74484 59.8261 7.21055L59.9133 6.66335ZM75.509 6.40666C72.0473 6.40666 68.779 8.93852 67.7771 12.9172C66.7753 16.8958 68.2934 21.6013 73.3874 21.6013C78.4815 21.6013 81.3986 16.701 81.3986 12.622C81.4033 8.56749 78.6382 6.40549 75.5101 6.40549L75.509 6.40666ZM76.9115 13.7992C76.7324 15.603 75.9333 18.3402 73.7457 18.3402C71.5582 18.3402 71.854 15.1433 72.0662 13.6207C72.2984 11.9966 73.2118 9.68174 75.1801 9.68174C76.9504 9.68174 77.1166 11.7667 76.9127 13.8004L76.9115 13.7992ZM98.504 10.9722L96.6253 16.8433C96.5746 16.3824 95.3005 6.64935 95.3005 6.64935C92.3422 6.64935 90.7581 8.74717 89.9283 10.9593L87.6371 16.8561C87.6253 16.4338 87.3153 11.0223 87.3153 11.0223C87.1291 8.31081 84.6304 6.66101 82.6008 6.66101L85.0323 21.4088C88.1321 21.3971 89.8058 19.311 90.6815 17.0988L92.6121 12.0853C92.6239 12.2894 93.951 21.41 93.951 21.41C97.0649 21.41 98.7315 19.4533 99.6355 17.317L104 6.66218C100.938 6.66218 99.3161 8.74717 98.4923 10.9722H98.504ZM62.7444 0.0863415L60.2221 20.3062L59.7059 22.8008C59.7695 22.8008 59.8473 22.8124 59.911 22.8124C62.6242 22.7739 64.5548 20.4089 64.9166 17.4278L66.3699 5.82678C66.8107 2.28334 64.688 0.084007 62.7444 0.084007V0.0863415Z" fill="black"/>
</svg>
