<svg width="34" height="34" viewBox="0 0 34 34" fill="none" xmlns="http://www.w3.org/2000/svg">
<g clip-path="url(#clip0_172_62)">
<path d="M17 0C7.42475 0 0 7.01675 0 16.49C0 21.4455 2.0315 25.7295 5.338 28.6875C5.61425 28.934 5.78425 29.2825 5.79275 29.6565L5.88625 32.6825C5.89306 32.9051 5.95445 33.1227 6.06503 33.3161C6.17562 33.5094 6.332 33.6727 6.52045 33.7915C6.70889 33.9102 6.92362 33.9809 7.14578 33.9973C7.36793 34.0136 7.59069 33.9752 7.7945 33.8852L11.169 32.3977C11.4537 32.2702 11.7768 32.249 12.0785 32.3298C13.6298 32.7548 15.2788 32.9842 17 32.9842C26.5753 32.9842 34 25.9675 34 16.4943C34 7.021 26.5753 0 17 0Z" fill="url(#paint0_radial_172_62)"/>
<path d="M6.79161 21.3137L11.7854 13.3917C11.9732 13.0935 12.2209 12.8374 12.5127 12.6397C12.8045 12.4419 13.1341 12.3069 13.4808 12.243C13.8274 12.1791 14.1836 12.1877 14.5267 12.2684C14.8698 12.3491 15.1925 12.5 15.4744 12.7117L19.4481 15.691C19.6255 15.8238 19.8413 15.8952 20.0629 15.8944C20.2846 15.8937 20.4999 15.8208 20.6764 15.6867L26.0399 11.6152C26.7539 11.0712 27.6889 11.9297 27.2129 12.6905L22.2149 20.6082C22.027 20.9065 21.7793 21.1626 21.4875 21.3603C21.1957 21.558 20.8661 21.6931 20.5194 21.757C20.1728 21.8209 19.8167 21.8122 19.4735 21.7315C19.1304 21.6508 18.8077 21.4999 18.5259 21.2882L14.5521 18.309C14.3747 18.1762 14.1589 18.1047 13.9373 18.1055C13.7157 18.1063 13.5003 18.1792 13.3239 18.3132L7.96036 22.3847C7.24636 22.9287 6.31136 22.0745 6.79161 21.3137Z" fill="white"/>
</g>
<defs>
<radialGradient id="paint0_radial_172_62" cx="0" cy="0" r="1" gradientUnits="userSpaceOnUse" gradientTransform="translate(5.695 34) scale(37.4 37.4)">
<stop stop-color="#0099FF"/>
<stop offset="0.6" stop-color="#A033FF"/>
<stop offset="0.9" stop-color="#FF5280"/>
<stop offset="1" stop-color="#FF7061"/>
</radialGradient>
<clipPath id="clip0_172_62">
<rect width="34" height="34" fill="white"/>
</clipPath>
</defs>
</svg>
