<svg width="85" height="25" viewBox="0 0 85 25" fill="none" xmlns="http://www.w3.org/2000/svg">
<path fill-rule="evenodd" clip-rule="evenodd" d="M32.1404 10.9683C32.1404 8.59393 33.9183 6.9366 37.1527 6.9366C39.1234 6.9366 40.7385 7.54952 41.6134 8.14993C41.8456 8.29593 41.9359 8.58327 41.8277 8.8306L41.1154 10.2804C40.9837 10.5171 40.6485 10.4868 40.4771 10.4013C39.8538 10.0938 38.8331 9.57477 37.9067 9.47877C37.6763 9.45477 37.4354 9.44235 37.1913 9.44752C36.3645 9.46527 35.6748 9.74468 35.4306 10.3585C35.3813 10.4805 35.3548 10.6023 35.3523 10.7233C35.3309 11.5321 36.4855 11.8239 37.8855 12.0566C40.4902 12.4911 42.4587 13.2343 42.4587 15.842C42.4587 18.0569 40.638 20.0591 37.1037 19.9977C34.7666 19.9519 33.1088 19.1847 32.2199 18.4374C32.19 18.4124 31.8515 18.0767 32.0324 17.6744C32.2403 17.1553 32.5894 16.5593 32.8648 16.2464C33.0179 16.0431 33.4216 16.0109 33.6306 16.1381C34.3632 16.5811 35.5584 17.2909 36.9572 17.3368L37.2816 17.3388C38.5316 17.3096 39.2877 16.849 39.2716 16.0714C39.2578 15.3866 38.2671 14.9873 36.7011 14.6976C34.1843 14.2359 32.1601 13.4293 32.1601 10.9664M55.0198 14.3464C53.2452 14.3693 51.6183 14.8414 51.5712 16.1912C51.5712 17.2615 52.4632 17.7879 53.7172 17.7191C54.9188 17.6066 55.8356 17.0991 56.2394 16.4266C56.3894 16.1764 56.4109 15.2437 56.4022 14.8445C56.4001 14.761 56.2277 14.5987 56.1516 14.5683C55.7746 14.4141 55.495 14.3661 55.0195 14.3474M49.115 8.90993C49.945 8.1876 51.5783 7.06302 54.2131 7.12243C57.6725 7.19227 59.5006 8.77135 59.6708 12.5391C59.7404 14.0964 59.6249 18.4404 59.5951 19.5223C59.6089 19.5962 59.5846 19.672 59.5303 19.7252C59.5032 19.7515 59.4702 19.771 59.434 19.7821C59.3978 19.7932 59.3594 19.7956 59.3221 19.7891L56.8308 19.7944C56.5256 19.7798 56.4902 19.6329 56.4859 19.4777L56.4677 18.8335C56.4645 18.7044 56.3393 18.7085 56.307 18.7294C55.4952 19.5633 54.1652 19.9802 52.7513 19.9802C50.6027 19.9802 48.4609 18.7504 48.4672 16.3145C48.4737 13.8204 50.2911 12.5895 52.2875 12.2997C53.5664 12.1142 55.0078 12.2789 56.0982 12.701C56.1678 12.728 56.3103 12.6885 56.3124 12.5925C56.3166 12.2748 56.3016 11.6692 56.2375 11.3814C56.0767 10.6498 55.4503 10.0609 54.1329 9.90143C53.862 9.86852 53.5883 9.86143 53.3158 9.8806C52.2682 9.96077 51.0087 10.756 50.4861 11.0531C50.3629 11.1229 50.1714 11.0719 50.1091 10.9937C49.8049 10.6104 49.0382 9.4906 48.9792 9.31143C48.9202 9.13227 49.0038 8.9831 49.111 8.88927L49.115 8.90993ZM60.7911 13.5416C60.7698 10.0624 63.2608 7.12743 67.3061 7.10035C69.8294 7.08485 71.663 8.19785 71.9865 8.72318C72.0507 8.84618 72.0185 8.94935 71.9724 9.07343C71.6454 9.69399 71.2648 10.2854 70.835 10.8412C70.6713 11.0454 70.4923 10.8704 70.2867 10.7369C69.7136 10.3648 68.6234 9.91018 67.5514 9.91018C65.6065 9.91018 64.1563 11.2089 64.1735 13.5969C64.1884 15.8899 65.5658 17.1479 67.5577 17.1927C68.5935 17.2177 69.5981 16.6383 70.1282 16.164C70.2973 16.0203 70.4731 16.091 70.667 16.239C71.0471 16.6174 71.5923 17.2011 71.8953 17.5939C72.0935 17.817 71.9458 18.0359 71.874 18.1235C71.0535 19.1344 69.4685 19.9839 67.3714 19.9954C62.9803 20.0265 60.802 17.0207 60.7815 13.5291M81.7412 19.8412C81.9469 19.8265 84.1467 19.5304 84.8225 19.3804C84.9895 19.3429 85.0495 19.2064 84.9571 19.0699L82.5505 15.5574L80.264 12.7047C80.1847 12.6004 80.1891 12.4962 80.2747 12.4129L84.458 8.33118C84.835 7.9351 84.6081 7.76327 84.2888 7.67035C83.6699 7.49118 82.6696 7.26702 82.1007 7.14918C81.8609 7.10018 81.5716 7.11793 81.3509 7.32635L76.5208 11.9907C76.36 12.1469 76.268 12.1124 76.2669 11.8884L76.1632 1.87743C76.159 1.72102 75.9662 1.60327 75.8579 1.59827L73.3357 1.59302C73.1761 1.62093 73.0502 1.74052 73.0176 1.89527C72.8892 3.7786 73.0712 17.6043 73.1483 19.5389C73.1502 19.6741 73.2581 19.7855 73.3968 19.7953C73.9506 19.8264 75.3202 19.8244 75.9608 19.8129C76.2755 19.8129 76.3142 19.5973 76.3142 19.5973L76.3614 15.8866C76.3614 15.8866 76.3935 15.722 76.4472 15.6783L77.5632 14.5399C77.6274 14.4795 77.7281 14.4838 77.7923 14.5691C78.1083 14.9839 79.0101 16.3327 79.8455 17.5374L81.3802 19.6958C81.4959 19.8563 81.631 19.8626 81.7337 19.8594L81.7412 19.8412Z" fill="black"/>
<path fill-rule="evenodd" clip-rule="evenodd" d="M44.3436 19.84L46.6548 19.8442C46.7407 19.8494 46.8251 19.8206 46.8896 19.7643C46.9212 19.7366 46.9469 19.703 46.9651 19.6653C46.9832 19.6276 46.9936 19.5867 46.9954 19.545C47.1346 16.8331 47.0745 3.92152 46.9868 1.88385C46.9794 1.7066 46.9012 1.64094 46.778 1.62535C46.2211 1.55235 44.6339 1.5701 44.1251 1.69835C44.0313 1.71752 43.964 1.79785 43.9635 1.8911C43.8392 7.1461 43.9228 19.2616 43.9497 19.4909C43.9765 19.7203 44.0995 19.8318 44.3427 19.8401L44.3436 19.84Z" fill="black"/>
<path fill-rule="evenodd" clip-rule="evenodd" d="M6.73267 15.9483C6.73267 14.4995 7.85871 13.3333 9.25742 13.3333C10.6561 13.3333 11.7822 14.4995 11.7822 15.9483V22.3849C11.7822 23.8336 10.6561 24.9999 9.25742 24.9999C7.85871 24.9999 6.73267 23.8336 6.73267 22.3849V15.9483Z" fill="#E01E5A"/>
<path fill-rule="evenodd" clip-rule="evenodd" d="M16.1062 18.3333C14.6432 18.3333 13.4653 17.2183 13.4653 15.8333C13.4653 14.4483 14.6431 13.3333 16.1062 13.3333H22.6068C24.0698 13.3333 25.2477 14.4483 25.2477 15.8333C25.2477 17.2183 24.0699 18.3333 22.6068 18.3333H16.1062Z" fill="#ECB22D"/>
<path fill-rule="evenodd" clip-rule="evenodd" d="M13.4653 2.615C13.4653 1.16625 14.5914 0 15.9901 0C17.3888 0 18.5148 1.16625 18.5148 2.615V9.05167C18.5148 10.5004 17.3888 11.6667 15.9901 11.6667C14.5914 11.6667 13.4653 10.5004 13.4653 9.05167V2.615Z" fill="#2FB67C"/>
<path fill-rule="evenodd" clip-rule="evenodd" d="M2.64089 11.6667C1.1778 11.6667 0 10.5517 0 9.16675C0 7.78175 1.1778 6.66675 2.64089 6.66675H9.14129C10.6044 6.66675 11.7822 7.78175 11.7822 9.16675C11.7822 10.5517 10.6044 11.6667 9.14129 11.6667H2.64089Z" fill="#36C5F1"/>
<path fill-rule="evenodd" clip-rule="evenodd" d="M13.4653 22.5C13.4653 23.885 14.5914 25 15.9901 25C17.3888 25 18.5148 23.885 18.5148 22.5C18.5148 21.115 17.3888 20 15.9901 20H13.4653V22.5Z" fill="#ECB22D"/>
<path fill-rule="evenodd" clip-rule="evenodd" d="M22.7228 11.6667H20.198V9.16675C20.198 7.78175 21.324 6.66675 22.7228 6.66675C24.1215 6.66675 25.2475 7.78175 25.2475 9.16675C25.2475 10.5517 24.1215 11.6667 22.7228 11.6667Z" fill="#2FB67C"/>
<path fill-rule="evenodd" clip-rule="evenodd" d="M2.52475 13.3333H5.04951V15.8333C5.04951 17.2183 3.92347 18.3333 2.52475 18.3333C1.12604 18.3333 0 17.2183 0 15.8333C0 14.4483 1.12604 13.3333 2.52475 13.3333Z" fill="#E01E5A"/>
<path fill-rule="evenodd" clip-rule="evenodd" d="M11.7822 2.5V5H9.25742C7.85871 5 6.73267 3.885 6.73267 2.5C6.73267 1.115 7.85871 0 9.25742 0C10.6561 0 11.7822 1.115 11.7822 2.5Z" fill="#36C5F1"/>
</svg>
