<svg width="89" height="32" viewBox="0 0 89 32" fill="none" xmlns="http://www.w3.org/2000/svg">
<path d="M24.2035 6.24261C24.1926 6.17361 24.1595 6.11025 24.1093 6.06249C24.0592 6.01473 23.9949 5.98529 23.9265 5.97878C23.8158 5.96078 21.3865 5.7897 21.3865 5.7897L19.5341 3.90512C19.3677 3.71603 18.9978 3.77186 18.858 3.81148C18.8403 3.81148 18.488 3.92403 17.9137 4.11401C17.3543 2.46985 16.3649 0.960748 14.6232 0.960748H14.4745C13.9744 0.303442 13.3638 0 12.846 0C8.78912 0.0180084 6.85446 5.16661 6.2438 7.79763L3.4082 8.68274C2.53823 8.96457 2.50549 8.98528 2.39043 9.82898L0 28.5874L17.9198 32L27.632 29.8696C27.632 29.8516 24.2221 6.42269 24.2044 6.24441L24.2035 6.24261ZM16.9198 4.43096C16.4684 4.58223 15.9463 4.7335 15.4011 4.90368V4.56422C15.4188 3.71603 15.2922 2.87144 15.0311 2.06466C15.9392 2.20693 16.5498 3.24421 16.9198 4.43096ZM13.9373 2.28256C14.2337 3.17128 14.3798 4.10771 14.3426 5.04685V5.21613L11.2096 6.20659C11.823 3.87721 12.9531 2.72557 13.9355 2.29247L13.9373 2.28256ZM12.7336 1.13633C12.9195 1.14083 13.0992 1.19936 13.2523 1.30561C11.9451 1.9251 10.5636 3.48822 9.97061 6.61808L7.49256 7.39064C8.19173 5.01533 9.82282 1.13093 12.7319 1.13093L12.7336 1.13633Z" fill="#95BF47"/>
<path d="M23.9273 5.97772C23.8167 5.95971 21.3873 5.78863 21.3873 5.78863L19.535 3.90406C19.4668 3.83202 19.3739 3.7924 19.2756 3.7915L17.9233 31.9962L27.6355 29.8658L24.2052 6.25865C24.1822 6.11459 24.0707 5.99933 23.9282 5.97682L23.9273 5.97772Z" fill="#5E8E3E"/>
<path d="M14.6223 11.4453L13.4169 15.065C12.6885 14.7049 11.8911 14.5131 11.0822 14.4978C9.19093 14.4978 9.09978 15.7043 9.09978 16.0069C9.09978 17.6546 13.3434 18.2885 13.3434 22.1729C13.3434 25.2272 11.4345 27.1883 8.87675 27.1883C5.80043 27.1883 4.2251 25.2461 4.2251 25.2461L5.04285 22.4728C5.04285 22.4728 6.65359 23.8864 8.02714 23.8864C8.19131 23.893 8.35509 23.8656 8.50853 23.8058C8.66196 23.7461 8.80186 23.6552 8.91973 23.5387C9.03759 23.4223 9.13096 23.2827 9.19416 23.1284C9.25737 22.9741 9.28909 22.8083 9.2874 22.6412C9.2874 20.4712 5.80308 20.3775 5.80308 16.8335C5.80308 13.8531 7.91474 10.9492 12.1593 10.9492C13.8275 10.9744 14.6249 11.4444 14.6249 11.4444L14.6223 11.4453Z" fill="white"/>
<path d="M36.0643 16.8369C35.3713 16.4588 35.0129 16.1319 35.0129 15.6844C35.0129 15.1171 35.4996 14.7507 36.29 14.7507C36.8766 14.7636 37.4552 14.8923 37.9936 15.1297L38.6326 13.1542C38.6326 13.1542 38.0467 12.6932 36.3298 12.6932C33.9349 12.6932 32.2711 14.0889 32.2711 16.05C32.2711 17.1593 33.0428 18.0129 34.0801 18.6216C34.9182 19.1168 35.2129 19.4446 35.2129 19.9614C35.2129 20.4782 34.8005 20.9095 34.0155 20.9095C32.8588 20.9095 31.7675 20.3009 31.7675 20.3009L31.0896 22.2764C31.0896 22.2764 32.1012 22.9661 33.7907 22.9661C36.251 22.9661 38.0211 21.7343 38.0211 19.5085C38.0343 18.3037 37.1422 17.4645 36.074 16.8279L36.0643 16.8369ZM45.8827 12.6815C44.672 12.6815 43.7144 13.2641 42.9816 14.1636L42.9409 14.1501L43.9923 8.55308H41.2531L38.5919 22.8067H41.3328L42.2506 17.9336C42.6099 16.0932 43.5453 14.9551 44.4189 14.9551C45.0295 14.9551 45.2702 15.3747 45.2702 15.9842C45.2702 16.3984 45.2295 16.8099 45.1508 17.216L44.1135 22.7932H46.8544L47.9324 17.0305C48.0501 16.4336 48.1182 15.8276 48.1315 15.2207C48.1182 13.6504 47.3067 12.7031 45.8836 12.7031L45.8827 12.6815ZM54.3169 12.6815C51.0176 12.6815 48.8351 15.7141 48.8351 19.0745C48.8351 21.2409 50.152 22.9733 52.6141 22.9733C55.8506 22.9733 58.0428 20.0217 58.0428 16.5803C58.0428 14.5769 56.8861 12.6815 54.3213 12.6815H54.3169ZM52.9717 20.8438C52.0398 20.8438 51.6415 20.0334 51.6415 19.034C51.6415 17.4366 52.4504 14.8245 53.9443 14.8245C54.9152 14.8245 55.2391 15.6772 55.2391 16.5038C55.2355 18.2191 54.4249 20.8438 52.9734 20.8438H52.9717ZM65.0522 12.6815C63.1936 12.6815 62.1511 14.3275 62.1511 14.3275H62.1104L62.2723 12.8454H59.8447L59.2872 16.5416L57.3844 26.7488H60.1129L60.8722 22.6194H60.9253C60.9253 22.6194 61.4829 22.985 62.5361 22.985C65.7558 22.985 67.8577 19.6282 67.8577 16.2355C67.871 14.3671 67.0488 12.6896 65.0504 12.6896L65.0522 12.6815ZM62.4307 20.8843C62.0172 20.8927 61.6146 20.7481 61.2979 20.4773L61.7511 17.8643C62.075 16.131 62.9618 14.9668 63.9193 14.9668C64.7575 14.9668 65.0097 15.7519 65.0097 16.4975C65.0141 18.3136 63.9654 20.8852 62.4343 20.8852L62.4307 20.8843ZM71.7854 8.67464C71.3659 8.67194 70.9623 8.84122 70.6676 9.14466C70.3729 9.4481 70.2092 9.85959 70.2251 10.2864C70.2251 11.1094 70.7446 11.682 71.5199 11.682H71.5606C71.7721 11.6906 71.983 11.655 72.1805 11.5773C72.3779 11.4997 72.5576 11.3817 72.7084 11.2307C72.8593 11.0796 72.9781 10.8988 73.0576 10.6992C73.137 10.4996 73.1754 10.2856 73.1704 10.0703C73.1704 9.25991 72.6377 8.67464 71.7987 8.67464H71.7854ZM67.9568 22.7797H70.6977L72.5598 12.9021H69.8091M79.5443 12.8886H77.6301L77.7239 12.4276C77.8858 11.4794 78.4425 10.6267 79.3417 10.6267C79.6396 10.6269 79.9358 10.6724 80.2205 10.7618L80.7497 8.5801C80.7497 8.5801 80.263 8.33698 79.2594 8.33698C78.2827 8.31227 77.3294 8.64342 76.5716 9.27072C75.6396 10.0811 75.1998 11.2462 74.9785 12.4249L74.89 12.8859H73.613L73.2129 14.9839H74.49L73.0333 22.7815H75.7839L77.2406 14.9839H79.131L79.5027 12.8859L79.5443 12.8886ZM86.1448 12.9021L83.6561 19.6976H83.6154L82.9375 12.9021H80.0488L81.6994 21.9711C81.7391 22.1261 81.7201 22.2907 81.6463 22.4321C81.2878 23.1048 80.7772 23.6801 80.1559 24.1114C79.6798 24.4446 79.1602 24.7093 78.6124 24.8966L79.3718 27.2647C80.3758 26.9913 81.2975 26.4687 82.0543 25.7439C83.3048 24.5517 84.4615 22.7113 85.6474 20.2063L88.9999 12.8967H86.1439L86.1448 12.9021Z" fill="black"/>
</svg>
