<svg width="132" height="36" viewBox="0 0 132 36" fill="none" xmlns="http://www.w3.org/2000/svg">
<path d="M128.192 22.2065C128.113 22.6038 127.975 22.939 127.786 23.237C127.598 23.535 127.352 23.771 127.034 23.9597C126.726 24.1385 126.341 24.2366 125.884 24.2366C125.437 24.2366 125.052 24.1472 124.746 23.9597C124.428 23.7734 124.181 23.5338 123.982 23.237C123.793 22.939 123.655 22.6038 123.566 22.2065C123.477 21.8091 123.437 21.4143 123.437 21.0083C123.436 20.5993 123.476 20.1912 123.556 19.7902C123.635 19.3929 123.773 19.0452 123.962 18.7497C124.148 18.4417 124.397 18.2033 124.714 18.0072C125.022 17.8184 125.41 17.7191 125.864 17.7191C126.311 17.7191 126.686 17.8184 126.982 18.0072C127.277 18.1959 127.547 18.4542 127.745 18.7596C127.944 19.0651 128.081 19.4227 128.171 19.8101C128.259 20.2034 128.302 20.6053 128.3 21.0083C128.3 21.4106 128.26 21.812 128.181 22.2065H128.192ZM130.828 19.0067C130.64 18.3424 130.363 17.7688 129.987 17.2634C129.601 16.7642 129.11 16.3552 128.55 16.0652C127.975 15.7672 127.283 15.6095 126.479 15.6095C125.846 15.6095 125.269 15.7386 124.746 15.9857C124.222 16.2328 123.784 16.6401 123.447 17.1839H123.407V15.8864H120.75V29.6291H123.544V24.8015H123.583C123.912 25.2864 124.363 25.676 124.891 25.9315C125.435 26.1916 126.031 26.3237 126.634 26.3176C127.379 26.3176 128.031 26.1686 128.596 25.883C129.141 25.6037 129.618 25.2077 129.993 24.7233C130.369 24.2391 130.647 23.6828 130.825 23.0471C131.013 22.4138 131.102 21.7595 131.102 21.0753C131.102 20.3527 131.012 19.6598 130.825 18.9943L130.828 19.0067ZM117.046 22.2065C116.966 22.6038 116.829 22.939 116.64 23.237C116.451 23.535 116.205 23.771 115.887 23.9597C115.581 24.1385 115.192 24.2366 114.739 24.2366C114.292 24.2366 113.917 24.1472 113.599 23.9597C113.293 23.7804 113.031 23.5331 112.835 23.237C112.649 22.939 112.509 22.6038 112.42 22.2065C112.33 21.8091 112.29 21.4143 112.29 21.0083C112.289 20.5993 112.329 20.1912 112.41 19.7902C112.489 19.3929 112.627 19.0452 112.816 18.7497C113.004 18.4459 113.262 18.1913 113.568 18.0072C113.875 17.8184 114.261 17.7191 114.717 17.7191C115.164 17.7191 115.539 17.8184 115.834 18.0072C116.13 18.1959 116.399 18.4542 116.596 18.7596C116.794 19.0651 116.932 19.4227 117.022 19.8101C117.109 20.2035 117.152 20.6054 117.15 21.0083C117.15 21.4106 117.11 21.812 117.031 22.2065H117.046ZM118.839 17.2622C118.463 16.7655 117.977 16.3607 117.402 16.064C116.827 15.7672 116.136 15.6083 115.331 15.6083C114.698 15.6083 114.123 15.7374 113.598 15.9845C113.073 16.2316 112.637 16.6389 112.3 17.1827H112.261V15.8864H109.603V29.6291H112.397V24.8015H112.437C112.766 25.2864 113.217 25.676 113.744 25.9315C114.278 26.1885 114.853 26.3164 115.488 26.3164C116.24 26.3164 116.885 26.1674 117.449 25.8818C118.003 25.5962 118.47 25.2076 118.846 24.7221C119.223 24.2366 119.501 23.6816 119.691 23.0458C119.868 22.4126 119.968 21.7582 119.968 21.0741C119.972 20.3709 119.879 19.6706 119.691 18.993C119.502 18.33 119.225 17.7551 118.838 17.2498V17.2597L118.839 17.2622ZM100.462 20.6308L102.295 15.4692H102.335L104.108 20.6308H100.462ZM100.76 12.0012L95.4398 26.0606H98.5253L99.6254 22.9316H104.886L105.947 26.0606H109.156L103.896 12.0012H100.724H100.76ZM95.2125 21.6018C95.0238 21.2852 94.7867 21.0058 94.4676 20.7897C94.1696 20.5724 93.8219 20.4048 93.437 20.2645L92.2475 19.9293L91.0877 19.671C90.7457 19.6021 90.4082 19.5125 90.077 19.4028C89.779 19.3035 89.5431 19.1756 89.3643 19.0179C89.1756 18.8589 89.0874 18.6615 89.0874 18.4033C89.0874 18.1947 89.1371 18.027 89.2451 17.8979C89.3531 17.7688 89.4835 17.6806 89.63 17.6123C89.7765 17.544 89.9467 17.503 90.1354 17.4832L90.6507 17.4534C91.1474 17.4534 91.5819 17.5527 91.9495 17.739C92.317 17.9252 92.5244 18.294 92.5542 18.8291H95.2113C95.1616 18.1959 94.994 17.6794 94.7271 17.2646C94.4601 16.8499 94.1224 16.5221 93.7163 16.2738C93.3103 16.0255 92.8447 15.8479 92.3294 15.7399C91.8141 15.6319 91.279 15.581 90.7239 15.581C90.1689 15.581 89.6338 15.6306 89.1098 15.73C88.6109 15.8171 88.1313 15.9916 87.693 16.2452C87.2672 16.4936 86.9294 16.8201 86.6823 17.2361C86.4241 17.652 86.2974 18.1971 86.2974 18.8503C86.2974 19.2973 86.3868 19.6722 86.5743 19.9677C86.7531 20.2757 87.0002 20.5327 87.297 20.7401C87.6181 20.9483 87.9644 21.1148 88.3275 21.2355C88.718 21.3653 89.1151 21.4743 89.517 21.562C90.5178 21.7706 91.2901 21.978 91.8551 22.1866C92.4101 22.3952 92.687 22.7118 92.687 23.1278C92.6946 23.3496 92.632 23.5681 92.5082 23.7523C92.3919 23.9167 92.2394 24.0522 92.0624 24.1484C91.8836 24.2478 91.6862 24.3173 91.4665 24.3657C91.2467 24.4141 91.0406 24.4353 90.8419 24.4353C90.565 24.4353 90.2956 24.4055 90.0497 24.3359C89.7927 24.2664 89.5655 24.1671 89.3668 24.0292C89.1681 23.8914 89.0104 23.7126 88.8826 23.4953C88.7547 23.278 88.6938 23.0198 88.6938 22.723H86.0367C86.0665 23.4059 86.2155 23.9709 86.5023 24.4266C86.7792 24.8823 87.148 25.2386 87.5825 25.5167C88.0447 25.804 88.5549 26.0055 89.0887 26.1115C89.6586 26.2313 90.2396 26.2913 90.822 26.2903C91.3969 26.2903 91.9718 26.2307 92.5268 26.1214C93.0819 26.0122 93.5773 25.8147 94.0131 25.5378C94.4489 25.261 94.7953 24.8922 95.0635 24.4477C95.3305 23.992 95.4696 23.437 95.4696 22.764C95.4696 22.2884 95.3802 21.8923 95.1927 21.5745L95.2125 21.6018ZM83.6502 12.8332H80.8565V15.8852H79.1616V17.7576H80.8565V23.7623C80.8565 24.2776 80.9459 24.6836 81.1135 25.0002C81.2811 25.3168 81.5195 25.5552 81.8175 25.7328C82.1155 25.9017 82.4507 26.0184 82.8381 26.0805C83.2255 26.1425 83.6403 26.1699 84.0798 26.1699L84.9316 26.15C85.1938 26.1411 85.4552 26.1145 85.7138 26.0705V23.9001C85.577 23.9311 85.4379 23.951 85.2979 23.9597L84.8422 23.9796C84.3666 23.9796 84.0599 23.9001 83.901 23.7412C83.7421 23.5822 83.6626 23.2656 83.6626 22.8V17.7563H85.7138V15.8864H83.6378V12.8344L83.6502 12.8332ZM75.634 22.127C75.634 22.2847 75.6141 22.4933 75.5843 22.7603C75.5545 23.0185 75.4651 23.2855 75.3161 23.5326C75.1671 23.7908 74.9499 24.0081 74.6419 24.1969C74.3439 24.3831 73.8969 24.4737 73.363 24.4737C73.1445 24.4737 72.9284 24.4539 72.7087 24.4141C72.5001 24.3744 72.3113 24.3049 72.1536 24.2055C71.9947 24.1056 71.8649 23.9656 71.7774 23.7995C71.688 23.6307 71.6383 23.4233 71.6383 23.1663C71.6383 22.8981 71.688 22.6907 71.7774 22.5119C71.8668 22.3431 71.9947 22.204 72.1437 22.086C72.3071 21.9697 72.4876 21.8796 72.6789 21.8191C72.8829 21.751 73.0917 21.6979 73.3034 21.6601L73.9776 21.5608L74.6233 21.4615C74.8181 21.4248 75.0101 21.375 75.1982 21.3125C75.377 21.2529 75.5247 21.1734 75.6452 21.0641V22.1046L75.634 22.127ZM78.4278 23.8032V18.5013C78.4278 17.8867 78.2887 17.3913 78.0118 17.0151C77.7349 16.6389 77.3785 16.3508 76.9514 16.1434C76.5168 15.9348 76.04 15.7958 75.5148 15.7175C74.9992 15.647 74.4795 15.6105 73.959 15.6083C73.3932 15.6099 72.8289 15.6665 72.2741 15.7771C71.7191 15.8864 71.2137 16.0751 70.7679 16.3421C70.3287 16.6032 69.953 16.9586 69.6678 17.3826C69.3822 17.8172 69.2121 18.3759 69.1712 19.0179H71.9649C72.0146 18.4629 72.2008 18.0767 72.5199 17.8383C72.839 17.5999 73.2649 17.4819 73.8187 17.4819C74.067 17.4819 74.3029 17.5018 74.5227 17.5316C74.7425 17.5614 74.9288 17.6309 75.0976 17.7303C75.2652 17.8301 75.4021 17.974 75.4937 18.1462C75.593 18.325 75.6427 18.5622 75.6427 18.8689C75.6526 19.1545 75.5732 19.3742 75.3844 19.5332C75.1957 19.6822 74.9499 19.8014 74.632 19.8808C74.3141 19.9603 73.9578 20.0199 73.5517 20.0596L72.3138 20.2186L71.0647 20.4855C70.6487 20.5948 70.2824 20.7624 69.9646 20.9909C69.638 21.2181 69.381 21.5161 69.1724 21.8824C68.9638 22.2586 68.8657 22.7342 68.8657 23.3103C68.8657 23.8355 68.9551 24.3036 69.1339 24.6674C69.3127 25.0524 69.5598 25.3628 69.8789 25.6086C70.1955 25.857 70.5618 26.0432 70.979 26.1636C71.421 26.2855 71.8777 26.3453 72.3362 26.3412C72.9694 26.3412 73.5853 26.2518 74.1887 26.0643C74.7922 25.8768 75.3062 25.559 75.7656 25.1033C75.7756 25.2721 75.8054 25.4385 75.8352 25.6086C75.8688 25.7728 75.9119 25.9349 75.9643 26.0941H78.7978C78.6686 25.8855 78.5693 25.5689 78.5209 25.1529C78.4725 24.737 78.4414 24.2912 78.4414 23.8368V23.8057L78.4278 23.8032ZM66.9002 16.768C66.6233 16.4116 66.2458 16.1223 65.7827 15.9261C65.3071 15.7175 64.6925 15.6194 63.94 15.6194C63.4148 15.6194 62.8797 15.7585 62.3259 16.0255C61.7721 16.2924 61.3251 16.7295 60.9687 17.3131H60.9091V12H58.1154V26.0593H60.9091V20.7202C60.9091 19.6797 61.078 18.9372 61.4244 18.4815C61.7597 18.0258 62.3159 17.8073 63.0796 17.8073C63.7439 17.8073 64.2194 18.0159 64.4764 18.4306C64.7335 18.8453 64.8738 19.4711 64.8738 20.3129V26.0593H67.6675V19.8225C67.6712 19.2437 67.6146 18.6661 67.4986 18.099C67.3894 17.5838 67.1919 17.138 66.9151 16.7829L66.9002 16.768ZM52.1269 21.7024H52.0871L49.6907 12H46.7976L44.3603 21.5707H44.3205L42.0917 12H39L42.725 26.0593H45.8565L48.1945 16.4886H48.2342L50.612 26.0593H53.6839L55.3676 19.8175L57.4685 12H54.4363L52.1269 21.7024Z" fill="#6EBF63"/>
<path d="M17.9929 35.966C14.3449 35.966 10.9403 34.8671 8.09688 32.9959L1.18082 35.2061L3.42202 28.526C1.26774 25.5634 0 21.9153 0 17.983C0 8.06708 8.06584 0 17.983 0C27.9002 0 35.9648 8.06708 35.9648 17.983C35.9648 27.8989 27.8989 35.966 17.9818 35.966H17.9917H17.9929Z" fill="#FEFEFE"/>
<path d="M2.77035 33.651L4.38402 28.8409L4.54824 28.3514L4.24422 27.934C2.20834 25.1393 1.01074 21.6968 1.01074 17.9826C1.01074 8.61979 8.62729 1.00193 17.99 1.00024L17.9901 1.00114H18.0005C27.3643 1.00114 34.9829 8.61995 34.9829 17.9835C34.9829 27.347 27.3646 34.9658 18.0005 34.9658C14.5446 34.9658 11.3418 33.938 8.65722 32.1614L8.25744 31.8968L7.80082 32.0428L2.77035 33.651Z" stroke="#6EBF63" stroke-width="2"/>
<path d="M12.9717 9.13473C12.624 8.29909 12.3583 8.26805 11.8293 8.24694L11.2271 8.22583C10.5392 8.22583 9.82032 8.42698 9.38698 8.8715C8.85803 9.41038 7.54932 10.6682 7.54932 13.2484C7.54932 15.8285 9.43168 18.323 9.68498 18.6719C9.94945 19.0196 13.3541 24.391 18.6398 26.5813C22.7746 28.2948 24.0001 28.1334 24.9413 27.9472C26.3158 27.6516 28.0392 26.636 28.4726 25.4104C28.9059 24.1849 28.9072 23.1382 28.7793 22.9271C28.6514 22.716 28.3037 22.5795 27.7735 22.3137L24.1901 20.6127C23.7145 20.4326 23.2588 20.4972 22.8988 21.0038L21.4919 22.8638C21.1753 23.2015 20.6563 23.245 20.223 23.0649C19.6419 22.8216 18.0128 22.2504 16.005 20.4637C14.4505 19.0792 13.3938 17.3558 13.0871 16.838C12.7804 16.3091 13.0561 16.0024 13.2982 15.7168C13.5627 15.389 13.816 15.158 14.0805 14.8501C14.3449 14.5422 14.4927 14.3845 14.6616 14.0256C14.8416 13.678 14.715 13.3179 14.5871 13.0534C14.4592 12.7889 13.4038 10.1976 12.9692 9.16328L12.9717 9.13473Z" fill="#6EBF63"/>
</svg>
