<svg width="54" height="21" viewBox="0 0 54 21" fill="none" xmlns="http://www.w3.org/2000/svg">
<path d="M30.9205 0.356466C29.8978 0.856516 29.4546 1.78994 29.4546 4.32353C29.4546 4.32353 29.966 3.82348 30.7841 3.52345C31.3807 3.30676 31.8069 3.0234 32.1137 2.80671C33 2.15665 33.1364 1.37323 33.1364 0.00643068C33.1194 0.00643068 31.7216 -0.076911 30.9205 0.356466Z" fill="#FBBD71"/>
<path d="M24.5344 1.00637C23.6315 1.7534 23.4058 3.03898 23.4058 3.03898L20.4887 14.227L18.0926 5.07159C17.8669 4.09872 17.4154 2.9 16.7383 2.06611C15.9048 1.00637 14.1685 0.936877 13.9601 0.936877C13.8039 0.936877 12.0849 1.00637 11.182 2.06611C10.5048 2.9 10.0534 4.09872 9.82765 5.07159L7.57042 14.227L4.65338 3.03898C4.65338 3.03898 4.42765 1.84026 3.52476 1.00637C2.10096 -0.279216 0 0.0334935 0 0.0334935L5.55627 20.9677C5.55627 20.9677 7.36206 21.124 8.26495 20.6723C9.46302 20.0643 10.0707 19.63 10.7479 16.7635C11.4251 14.2097 13.2309 6.77412 13.3698 6.25294C13.4392 6.02709 13.5955 5.34956 14.0469 5.34956C14.4984 5.34956 14.6547 5.9576 14.7241 6.25294C14.8804 6.77412 16.6688 14.2097 17.346 16.7635C18.0926 19.6126 18.6135 20.0643 19.8289 20.6723C20.7318 21.124 22.5376 20.9677 22.5376 20.9677L28.0592 0.0334935C28.0592 0.0334935 25.9582 -0.261843 24.5344 1.00637ZM33.1466 3.40381C33.1466 3.40381 32.7646 3.92499 32.018 4.37668C31.4971 4.67202 31.0457 4.82837 30.5248 5.12371C29.6219 5.5754 29.3961 6.02709 29.3961 6.70463V20.8982C29.3961 20.8982 30.8199 21.0545 31.7228 20.6028C32.9209 19.9948 33.1466 19.4041 33.1466 16.8503V4.2377V3.40381ZM46.9505 10.544L54 0.102985C54 0.102985 51.083 -0.418198 49.5723 0.936877C48.6 1.77077 47.6277 3.33432 47.6277 3.33432L45.0752 7.08683C44.919 7.31268 44.7801 7.46903 44.5543 7.46903C44.3286 7.46903 44.1029 7.24319 44.0334 7.08683L41.481 3.33432C41.481 3.33432 40.4392 1.84026 39.5363 0.936877C38.0431 -0.418198 35.1087 0.102985 35.1087 0.102985L41.9325 10.5266L34.9524 20.9503C34.9524 20.9503 38.0257 21.3325 39.5363 19.9774C40.5087 19.1435 41.4116 17.719 41.4116 17.719L43.964 13.9664C44.1203 13.7406 44.2592 13.5842 44.4849 13.5842C44.7106 13.5842 44.9363 13.8101 45.0058 13.9664L47.5582 17.719C47.5582 17.719 48.5305 19.1435 49.4334 19.9774C50.9267 21.3325 53.9305 20.9503 53.9305 20.9503L46.9505 10.544Z" fill="black"/>
</svg>
