<svg width="108" height="28" viewBox="0 0 108 28" fill="none" xmlns="http://www.w3.org/2000/svg">
<rect x="0.962524" y="0.691406" width="106" height="26" rx="13" fill="#A0A5A9"/>
<path d="M17.9487 12.5195H16.0822C16.0481 12.2781 15.9785 12.0636 15.8734 11.8761C15.7683 11.6857 15.6333 11.5238 15.4686 11.3903C15.3038 11.2567 15.1134 11.1545 14.8975 11.0835C14.6845 11.0124 14.4529 10.9769 14.2029 10.9769C13.7512 10.9769 13.3578 11.0891 13.0225 11.3136C12.6873 11.5352 12.4274 11.859 12.2427 12.2852C12.0581 12.7085 11.9657 13.2227 11.9657 13.8278C11.9657 14.4499 12.0581 14.9727 12.2427 15.396C12.4302 15.8192 12.6916 16.1388 13.0268 16.3548C13.362 16.5707 13.7498 16.6786 14.1902 16.6786C14.4373 16.6786 14.666 16.646 14.8762 16.5806C15.0893 16.5153 15.2782 16.4201 15.443 16.2951C15.6078 16.1673 15.7441 16.0124 15.8521 15.8306C15.9629 15.6488 16.0396 15.4414 16.0822 15.2085L17.9487 15.217C17.9004 15.6175 17.7796 16.0039 17.5865 16.3761C17.3961 16.7454 17.139 17.0763 16.8152 17.369C16.4941 17.6587 16.1106 17.8888 15.6646 18.0593C15.2214 18.2269 14.72 18.3107 14.1603 18.3107C13.3819 18.3107 12.6859 18.1346 12.0723 17.7823C11.4615 17.43 10.9785 16.9201 10.6234 16.2525C10.2711 15.5849 10.095 14.7766 10.095 13.8278C10.095 12.8761 10.274 12.0664 10.6319 11.3988C10.9899 10.7312 11.4757 10.2227 12.0893 9.87322C12.7029 9.52095 13.3933 9.34482 14.1603 9.34482C14.666 9.34482 15.1348 9.41584 15.5666 9.55788C16.0012 9.69993 16.3862 9.90732 16.7214 10.18C17.0566 10.4499 17.3294 10.7809 17.5396 11.1729C17.7527 11.565 17.889 12.0138 17.9487 12.5195ZM27.2917 13.8278C27.2917 14.7795 27.1113 15.5891 26.7505 16.2567C26.3926 16.9244 25.9039 17.4343 25.2846 17.7866C24.6681 18.136 23.975 18.3107 23.2051 18.3107C22.4295 18.3107 21.7335 18.1346 21.117 17.7823C20.5005 17.43 20.0133 16.9201 19.6554 16.2525C19.2974 15.5849 19.1184 14.7766 19.1184 13.8278C19.1184 12.8761 19.2974 12.0664 19.6554 11.3988C20.0133 10.7312 20.5005 10.2227 21.117 9.87322C21.7335 9.52095 22.4295 9.34482 23.2051 9.34482C23.975 9.34482 24.6681 9.52095 25.2846 9.87322C25.9039 10.2227 26.3926 10.7312 26.7505 11.3988C27.1113 12.0664 27.2917 12.8761 27.2917 13.8278ZM25.421 13.8278C25.421 13.2113 25.3286 12.6914 25.144 12.2681C24.9622 11.8448 24.7051 11.5238 24.3727 11.305C24.0403 11.0863 23.6511 10.9769 23.2051 10.9769C22.759 10.9769 22.3698 11.0863 22.0375 11.305C21.7051 11.5238 21.4465 11.8448 21.2619 12.2681C21.0801 12.6914 20.9892 13.2113 20.9892 13.8278C20.9892 14.4442 21.0801 14.9641 21.2619 15.3874C21.4465 15.8107 21.7051 16.1317 22.0375 16.3505C22.3698 16.5692 22.759 16.6786 23.2051 16.6786C23.6511 16.6786 24.0403 16.5692 24.3727 16.3505C24.7051 16.1317 24.9622 15.8107 25.144 15.3874C25.3286 14.9641 25.421 14.4442 25.421 13.8278ZM28.6585 9.46413H30.9341L33.3375 15.3278H33.4398L35.8432 9.46413H38.1188V18.1914H36.329V12.511H36.2566L33.998 18.1488H32.7793L30.5208 12.4897H30.4483V18.1914H28.6585V9.46413ZM41.4842 9.46413V18.1914H39.639V9.46413H41.4842ZM50.302 9.46413V18.1914H48.7083L44.9114 12.6985H44.8475V18.1914H43.0023V9.46413H44.6216L48.3887 14.9528H48.4654V9.46413H50.302ZM57.6134 12.2852C57.5538 12.0778 57.47 11.8945 57.362 11.7354C57.2541 11.5735 57.122 11.4371 56.9657 11.3263C56.8123 11.2127 56.6362 11.1261 56.4373 11.0664C56.2413 11.0067 56.024 10.9769 55.7853 10.9769C55.3393 10.9769 54.9473 11.0877 54.6092 11.3093C54.274 11.5309 54.0126 11.8533 53.8251 12.2766C53.6376 12.6971 53.5438 13.2113 53.5438 13.8192C53.5438 14.4272 53.6362 14.9442 53.8208 15.3704C54.0055 15.7965 54.2669 16.1218 54.6049 16.3462C54.943 16.5678 55.3421 16.6786 55.8024 16.6786C56.22 16.6786 56.5765 16.6048 56.872 16.457C57.1703 16.3065 57.3975 16.0948 57.5538 15.8221C57.7129 15.5494 57.7924 15.2269 57.7924 14.8548L58.1674 14.9102H55.9174V13.521H59.5694V14.6204C59.5694 15.3874 59.4075 16.0465 59.0836 16.5977C58.7598 17.146 58.3137 17.5692 57.7455 17.8675C57.1774 18.163 56.5268 18.3107 55.7938 18.3107C54.9757 18.3107 54.2569 18.1303 53.6376 17.7695C53.0183 17.4059 52.5353 16.8903 52.1887 16.2227C51.845 15.5522 51.6731 14.7567 51.6731 13.8363C51.6731 13.1289 51.7754 12.4982 51.9799 11.9442C52.1873 11.3874 52.4771 10.9158 52.8492 10.5295C53.2214 10.1431 53.6546 9.84908 54.149 9.64737C54.6433 9.44567 55.1788 9.34482 55.7555 9.34482C56.2498 9.34482 56.71 9.41726 57.1362 9.56214C57.5623 9.70419 57.9402 9.90589 58.2697 10.1673C58.6021 10.4286 58.8734 10.7397 59.0836 11.1005C59.2938 11.4585 59.4288 11.8533 59.4884 12.2852H57.6134ZM68.4671 11.9741C68.4331 11.6303 68.2867 11.3633 68.0282 11.1729C67.7697 10.9826 67.4188 10.8874 66.9757 10.8874C66.6745 10.8874 66.4203 10.93 66.2129 11.0153C66.0055 11.0977 65.8464 11.2127 65.7356 11.3604C65.6277 11.5082 65.5737 11.6758 65.5737 11.8633C65.568 12.0195 65.6007 12.1559 65.6717 12.2724C65.7456 12.3888 65.8464 12.4897 65.9742 12.5749C66.1021 12.6573 66.2498 12.7298 66.4174 12.7923C66.585 12.8519 66.764 12.9031 66.9544 12.9457L67.7384 13.1332C68.1191 13.2184 68.4686 13.332 68.7867 13.4741C69.1049 13.6161 69.3805 13.7908 69.6134 13.9982C69.8464 14.2056 70.0268 14.4499 70.1546 14.7312C70.2853 15.0124 70.3521 15.3349 70.3549 15.6985C70.3521 16.2326 70.2157 16.6957 69.9458 17.0877C69.6788 17.4769 69.2924 17.7795 68.7867 17.9954C68.2839 18.2085 67.6774 18.315 66.9671 18.315C66.2626 18.315 65.649 18.207 65.1262 17.9911C64.6063 17.7752 64.2001 17.4556 63.9075 17.0323C63.6177 16.6062 63.4657 16.0792 63.4515 15.4513H65.237C65.2569 15.744 65.3407 15.9883 65.4884 16.1843C65.639 16.3775 65.8393 16.5238 66.0893 16.6232C66.3421 16.7198 66.6277 16.7681 66.9458 16.7681C67.2583 16.7681 67.5296 16.7227 67.7598 16.6317C67.9927 16.5408 68.1731 16.4144 68.3009 16.2525C68.4288 16.0906 68.4927 15.9045 68.4927 15.6942C68.4927 15.4982 68.4345 15.3335 68.318 15.1999C68.2044 15.0664 68.0367 14.9528 67.8152 14.859C67.5964 14.7653 67.3279 14.68 67.0098 14.6033L66.0595 14.3647C65.3237 14.1857 64.7427 13.9059 64.3166 13.5252C63.8904 13.1445 63.6788 12.6317 63.6816 11.9869C63.6788 11.4585 63.8194 10.9968 64.1035 10.6019C64.3904 10.207 64.7839 9.89879 65.2839 9.6772C65.7839 9.45561 66.3521 9.34482 66.9884 9.34482C67.6362 9.34482 68.2015 9.45561 68.6845 9.6772C69.1703 9.89879 69.5481 10.207 69.818 10.6019C70.0879 10.9968 70.2271 11.4542 70.2356 11.9741H68.4671ZM79.6159 13.8278C79.6159 14.7795 79.4355 15.5891 79.0747 16.2567C78.7168 16.9244 78.2281 17.4343 77.6088 17.7866C76.9924 18.136 76.2992 18.3107 75.5293 18.3107C74.7537 18.3107 74.0577 18.1346 73.4412 17.7823C72.8247 17.43 72.3375 16.9201 71.9796 16.2525C71.6216 15.5849 71.4426 14.7766 71.4426 13.8278C71.4426 12.8761 71.6216 12.0664 71.9796 11.3988C72.3375 10.7312 72.8247 10.2227 73.4412 9.87322C74.0577 9.52095 74.7537 9.34482 75.5293 9.34482C76.2992 9.34482 76.9924 9.52095 77.6088 9.87322C78.2281 10.2227 78.7168 10.7312 79.0747 11.3988C79.4355 12.0664 79.6159 12.8761 79.6159 13.8278ZM77.7452 13.8278C77.7452 13.2113 77.6529 12.6914 77.4682 12.2681C77.2864 11.8448 77.0293 11.5238 76.6969 11.305C76.3645 11.0863 75.9753 10.9769 75.5293 10.9769C75.0833 10.9769 74.6941 11.0863 74.3617 11.305C74.0293 11.5238 73.7708 11.8448 73.5861 12.2681C73.4043 12.6914 73.3134 13.2113 73.3134 13.8278C73.3134 14.4442 73.4043 14.9641 73.5861 15.3874C73.7708 15.8107 74.0293 16.1317 74.3617 16.3505C74.6941 16.5692 75.0833 16.6786 75.5293 16.6786C75.9753 16.6786 76.3645 16.5692 76.6969 16.3505C77.0293 16.1317 77.2864 15.8107 77.4682 15.3874C77.6529 14.9641 77.7452 14.4442 77.7452 13.8278ZM89.0027 13.8278C89.0027 14.7795 88.8223 15.5891 88.4615 16.2567C88.1035 16.9244 87.6149 17.4343 86.9955 17.7866C86.3791 18.136 85.6859 18.3107 84.916 18.3107C84.1404 18.3107 83.4444 18.1346 82.8279 17.7823C82.2115 17.43 81.7242 16.9201 81.3663 16.2525C81.0083 15.5849 80.8294 14.7766 80.8294 13.8278C80.8294 12.8761 81.0083 12.0664 81.3663 11.3988C81.7242 10.7312 82.2115 10.2227 82.8279 9.87322C83.4444 9.52095 84.1404 9.34482 84.916 9.34482C85.6859 9.34482 86.3791 9.52095 86.9955 9.87322C87.6149 10.2227 88.1035 10.7312 88.4615 11.3988C88.8223 12.0664 89.0027 12.8761 89.0027 13.8278ZM87.1319 13.8278C87.1319 13.2113 87.0396 12.6914 86.8549 12.2681C86.6731 11.8448 86.416 11.5238 86.0836 11.305C85.7512 11.0863 85.362 10.9769 84.916 10.9769C84.47 10.9769 84.0808 11.0863 83.7484 11.305C83.416 11.5238 83.1575 11.8448 82.9728 12.2681C82.791 12.6914 82.7001 13.2113 82.7001 13.8278C82.7001 14.4442 82.791 14.9641 82.9728 15.3874C83.1575 15.8107 83.416 16.1317 83.7484 16.3505C84.0808 16.5692 84.47 16.6786 84.916 16.6786C85.362 16.6786 85.7512 16.5692 86.0836 16.3505C86.416 16.1317 86.6731 15.8107 86.8549 15.3874C87.0396 14.9641 87.1319 14.4442 87.1319 13.8278ZM97.6692 9.46413V18.1914H96.0755L92.2786 12.6985H92.2147V18.1914H90.3695V9.46413H91.9888L95.7558 14.9528H95.8326V9.46413H97.6692Z" fill="white"/>
<rect x="0.962524" y="0.691406" width="106" height="26" rx="13" stroke="white"/>
</svg>
