<?xml version="1.0" encoding="utf-8"?>
<!-- Generator: Adobe Illustrator 22.0.0, SVG Export Plug-In . SVG Version: 6.00 Build 0)  -->
<svg version="1.1" id="Layer_1" xmlns="http://www.w3.org/2000/svg" xmlns:xlink="http://www.w3.org/1999/xlink" x="0px" y="0px"
	 viewBox="0 0 5500 3700" style="enable-background:new 0 0 5500 3700;" xml:space="preserve">
<style type="text/css">
	.st0{fill:url(#SVGID_1_);}
	.st1{fill:url(#SVGID_2_);}
	.st2{fill:url(#SVGID_3_);}
	.st3{fill:url(#SVGID_4_);}
	.st4{fill:url(#SVGID_5_);}
	.st5{fill:url(#SVGID_6_);}
	.st6{fill:url(#SVGID_7_);}
	.st7{fill:url(#SVGID_8_);}
	.st8{fill:none;}
	.st9{fill:url(#SVGID_9_);}
</style>
<g>
	<linearGradient id="SVGID_1_" gradientUnits="userSpaceOnUse" x1="1218.2192" y1="1345.7965" x2="1196.1525" y2="2283.6316">
		<stop  offset="0" style="stop-color:#FCC40F"/>
		<stop  offset="1" style="stop-color:#ED1C24"/>
	</linearGradient>
	<path class="st0" d="M1206.4,1994.9l-137.3-519.1H919.7c-22.3,0-43.2,9.2-59,26c-15.5,16.4-24,37.8-24,60.2v649.4h156.5V1697
		l130.3,514.4h164.1l130.3-514.4v514.4h156.5v-735.6h-234.6L1206.4,1994.9z"/>
	<linearGradient id="SVGID_2_" gradientUnits="userSpaceOnUse" x1="2441.7446" y1="1374.5853" x2="2419.678" y2="2312.4204">
		<stop  offset="0" style="stop-color:#FCC40F"/>
		<stop  offset="1" style="stop-color:#ED1C24"/>
	</linearGradient>
	<path class="st1" d="M2606,1666.4c-40.4-26.4-100.6-39.7-179.2-39.7c-133.4,0-209.9,54.4-227.4,161.7l-1.7,10.7h158.1l1.9-6.7
		c6.1-21.7,30.8-32.3,75.5-32.3c76.5,0,80.5,28.6,81.5,38.7c0,9.5-1.3,36.3-82.5,46.3c-83.3,8.1-137.7,22.9-176.6,48.1
		c-47.7,30.9-71.6,78.1-73.1,144.3l0,0.2c0,55.4,18.4,101.7,53.3,133.9c36.7,33.9,89.4,51.5,153.6,51.5c9.6,0,19.6-0.4,29.7-1.2
		c167.3-11.7,252.2-93.2,252.2-242.3v-189.8l0-0.3C2669.5,1735,2647.5,1693.6,2606,1666.4z M2516.7,1973.4
		c0,73.9-42.4,116.3-116.3,116.3c-39.6,0-58.6-17.4-61.5-56.5c0.1-36.5,25.3-59,77-68.7c36.2-7.4,70-17.2,100.8-29.1V1973.4z"/>
	<linearGradient id="SVGID_3_" gradientUnits="userSpaceOnUse" x1="2831.479" y1="1383.7555" x2="2809.4124" y2="2321.5906">
		<stop  offset="0" style="stop-color:#FCC40F"/>
		<stop  offset="1" style="stop-color:#ED1C24"/>
	</linearGradient>
	<path class="st2" d="M2823.3,1475.9h-82v735.6H2900v-657.8C2900,1511.5,2864.9,1475.9,2823.3,1475.9z"/>
	<linearGradient id="SVGID_4_" gradientUnits="userSpaceOnUse" x1="3212.4695" y1="1381.1565" x2="3251.0862" y2="2440.3586">
		<stop  offset="3.517588e-02" style="stop-color:#F2F2F2"/>
		<stop  offset="0.1658" style="stop-color:#CCCCCC"/>
		<stop  offset="0.294" style="stop-color:#F2F2F2"/>
		<stop  offset="0.4598" style="stop-color:#FFFFFF"/>
		<stop  offset="0.6357" style="stop-color:#CCCCCC"/>
		<stop  offset="0.8116" style="stop-color:#FFFFFF"/>
		<stop  offset="1" style="stop-color:#CCCCCC"/>
	</linearGradient>
	<path class="st3" d="M2984.7,1501.8c-15.5,16.4-24,37.8-24,60.2v649.4h162.9V1894h194.4c22.4,0,43.8-8.5,60.2-24
		c16.7-15.8,26-36.8,26-59v-56.7h-280.5v-135.6H3498v-142.8h-454.3C3021.4,1475.9,3000.5,1485.1,2984.7,1501.8z"/>
	<linearGradient id="SVGID_5_" gradientUnits="userSpaceOnUse" x1="3614.5491" y1="1366.4974" x2="3653.1658" y2="2425.6995">
		<stop  offset="3.517588e-02" style="stop-color:#F2F2F2"/>
		<stop  offset="0.1658" style="stop-color:#CCCCCC"/>
		<stop  offset="0.294" style="stop-color:#F2F2F2"/>
		<stop  offset="0.4598" style="stop-color:#FFFFFF"/>
		<stop  offset="0.6357" style="stop-color:#CCCCCC"/>
		<stop  offset="0.8116" style="stop-color:#FFFFFF"/>
		<stop  offset="1" style="stop-color:#CCCCCC"/>
	</linearGradient>
	<path class="st4" d="M3624.8,1475.9h-82V1604h158.7v-50.2c0.6-25.2-5.7-44.6-18.6-57.8C3669.9,1482.6,3650.4,1475.9,3624.8,1475.9z
		"/>
	<linearGradient id="SVGID_6_" gradientUnits="userSpaceOnUse" x1="3600.54" y1="1367.0082" x2="3639.1567" y2="2426.2102">
		<stop  offset="3.517588e-02" style="stop-color:#F2F2F2"/>
		<stop  offset="0.1658" style="stop-color:#CCCCCC"/>
		<stop  offset="0.294" style="stop-color:#F2F2F2"/>
		<stop  offset="0.4598" style="stop-color:#FFFFFF"/>
		<stop  offset="0.6357" style="stop-color:#CCCCCC"/>
		<stop  offset="0.8116" style="stop-color:#FFFFFF"/>
		<stop  offset="1" style="stop-color:#CCCCCC"/>
	</linearGradient>
	<path class="st5" d="M3624.8,1635.1h-82v576.3h158.7v-499.6C3701.5,1661.7,3675,1635.1,3624.8,1635.1z"/>
	<linearGradient id="SVGID_7_" gradientUnits="userSpaceOnUse" x1="4023.698" y1="1351.5806" x2="4062.3147" y2="2410.7825">
		<stop  offset="3.517588e-02" style="stop-color:#F2F2F2"/>
		<stop  offset="0.1658" style="stop-color:#CCCCCC"/>
		<stop  offset="0.294" style="stop-color:#F2F2F2"/>
		<stop  offset="0.4598" style="stop-color:#FFFFFF"/>
		<stop  offset="0.6357" style="stop-color:#CCCCCC"/>
		<stop  offset="0.8116" style="stop-color:#FFFFFF"/>
		<stop  offset="1" style="stop-color:#CCCCCC"/>
	</linearGradient>
	<path class="st6" d="M4343.1,1585.6h-145.7c-31.4,0-54.7,14-69.2,41.6l-99.4,167.6l-90.8-159.6h-183.3l176.6,281.3l-187.3,295h194
		l94.8-167.6l93.8,167.6h191.1l-191.6-293.9L4343.1,1585.6z"/>
	<linearGradient id="SVGID_8_" gradientUnits="userSpaceOnUse" x1="4479.2363" y1="1334.9723" x2="4517.853" y2="2394.1743">
		<stop  offset="3.517588e-02" style="stop-color:#F2F2F2"/>
		<stop  offset="0.1658" style="stop-color:#CCCCCC"/>
		<stop  offset="0.294" style="stop-color:#F2F2F2"/>
		<stop  offset="0.4598" style="stop-color:#FFFFFF"/>
		<stop  offset="0.6357" style="stop-color:#CCCCCC"/>
		<stop  offset="0.8116" style="stop-color:#FFFFFF"/>
		<stop  offset="1" style="stop-color:#CCCCCC"/>
	</linearGradient>
	<path class="st7" d="M4634.1,1635.1c-192.1,0-291.7,93.9-296.1,279l0,297.3h160.8v-299.2c0-76.1,35.3-113.1,107.9-113.1h56.7
		v-163.9H4634.1z"/>
	<path class="st8" d="M1896.6,2082c-5.3,0-10.5,0-15.8,0.1c2.7,0.2,5.4,0.3,8.1,0.3C1891.5,2082.3,1894,2082.2,1896.6,2082z"/>
	<linearGradient id="SVGID_9_" gradientUnits="userSpaceOnUse" x1="1899.9612" y1="1361.8375" x2="1877.8945" y2="2299.6726">
		<stop  offset="0" style="stop-color:#FCC40F"/>
		<stop  offset="1" style="stop-color:#ED1C24"/>
	</linearGradient>
	<path class="st9" d="M1966.5,2081.1c-23.3,0.5-46.6,0.8-69.9,1c-2.5,0.2-5.1,0.3-7.7,0.3c-2.8,0-5.5-0.1-8.1-0.3
		c-19.8,0-39.5-0.1-59.3-0.5c-35.8-0.7-67.9-25.2-76.3-57.6c-3.3-12.7-1.6-26.7-2.6-40.1c-0.5-7-1-14.3-3.3-20.9
		c-4.3-12.4-9.2-13.6-20.5-7c-1.7,1-3.4,1.8-5.1,2.8c-1.3-0.4-2.7-0.9-4-1.3c0.9-4.7,0.4-10.7,3.1-14c7.9-9.5,18.1-9.7,28.5-3
		c3.2-21-1.9-28.9-23.6-38.1c-0.2-14.1,5.2-20.4,19.1-22.2c2.2-0.3,4.5-0.4,6.8-0.4c97.5,0,195,0,292.5,0c10.4,0,21.1-0.2,27.4,10.2
		c3.7,6.1,6,11.7-4.4,15.4c-13.5,4.7-18.9,13.5-17.9,28.1c0.4,5.8,0.6,11.5,0.5,17.3v0c0,0,0,0,0,0h106.8
		c3.8-116.1-20.2-202.2-71.3-255.8c-43.3-45.4-106.7-68.5-188.4-68.5c-175.4,1.1-264.4,100.3-264.4,295c0,195.2,88.2,297,262,302.4
		l0.3,0c69,0,125.3-16.6,167.4-49.4c40.4-31.5,69-78.9,85.1-141l3-11.5h-86.2c-9.4,0-18.1,5.2-22.3,13.7
		C2021.1,2061.5,1993.1,2080.5,1966.5,2081.1z M1761.3,1808.9c16.8-10.5,34.2-19.9,50.9-30.5c8.5-5.4,15.9-12.3,26.4-20.5
		c-11.4,1.6-19.2,2.7-27.5,3.9c3-20.1,35.6-40.2,59.5-36.5c-4.6,7.1-8.6,13.2-14.2,21.7c10.5-4,19.6-6.4,27.5-10.8
		c16.3-8.9,32-18.9,48.1-28.2c24.3-14,46.7-10.6,67.7,10.8c-85.3,50.3-170.3,100.4-255.3,150.4
		C1733.5,1849,1741.1,1821.6,1761.3,1808.9z"/>
	<path d="M2041,1972h-9.2l8.7,7.3c0.1-0.9,0.1-1.8,0.2-2.7C2040.8,1975.1,2040.9,1973.6,2041,1972z"/>
</g>
</svg>
